Coordinates
version=1
nRows=5
nColumns=63
inDegrees=yes

Units are S.I. units (second, meters, Newtons, ...)
If the header above contains a line with 'inDegrees', this indicates whether rotational values are in degrees (yes) or radians (no).

endheader
time	pelvis_tilt	pelvis_list	pelvis_rotation	pelvis_tx	pelvis_ty	pelvis_tz	hip_flexion_r	hip_adduction_r	hip_rotation_r	knee_angle_r	knee_angle_r_beta	ankle_angle_r	subtalar_angle_r	mtp_angle_r	hip_flexion_l	hip_adduction_l	hip_rotation_l	knee_angle_l	knee_angle_l_beta	ankle_angle_l	subtalar_angle_l	mtp_angle_l	L5_S1_Flex_Ext	L5_S1_Lat_Bending	L5_S1_axial_rotation	L4_L5_Flex_Ext	L4_L5_Lat_Bending	L4_L5_axial_rotation	L3_L4_Flex_Ext	L3_L4_Lat_Bending	L3_L4_axial_rotation	L2_L3_Flex_Ext	L2_L3_Lat_Bending	L2_L3_axial_rotation	L1_L2_Flex_Ext	L1_L2_Lat_Bending	L1_L2_axial_rotation	L1_T12_Flex_Ext	L1_T12_Lat_Bending	L1_T12_axial_rotation	Abs_r3	Abs_r2	Abs_r1	Abs_t1	Abs_t2	neck_flexion	neck_bending	neck_rotation	arm_flex_r	arm_add_r	arm_rot_r	elbow_flex_r	pro_sup_r	wrist_flex_r	wrist_dev_r	arm_flex_l	arm_add_l	arm_rot_l	elbow_flex_l	pro_sup_l	wrist_flex_l	wrist_dev_l
      0.00000000	     -2.03314909	     -4.65210049	     99.06102094	      0.28894540	      0.84652994	      0.75941396	     -2.10045397	      0.34253174	    -15.88981078	      0.36149069	      0.00630920	     29.02866570	     14.01413999	      0.00000000	      4.51615088	      1.87924532	     19.32740648	      7.75271440	      0.13531039	     28.43175310	    -14.05033441	      0.00000000	      0.06687967	      0.03908219	     -1.37834003	      0.12420224	      0.05197932	     -1.46448628	      0.10987661	      0.09502445	     -1.46448628	      0.07643678	      0.09502445	     -1.20604752	      0.06210446	      0.07969641	     -1.11990127	      0.03821504	      0.06053832	     -1.03375502	      0.47771481	      0.44210560	     -7.66591373	      0.00000000	      0.00000000	     24.89498402	     -6.08250506	     -5.35541460	     14.41580191	     -3.58620030	     46.11040597	     37.16594202	     86.26180103	      6.85254244	      9.62279712	     16.69601448	     -0.28216036	     53.95003946	     35.63102575	     64.60107490	     -5.84139307	      6.96193349
      0.01694915	     -1.98677942	     -4.14315102	     98.38903696	      0.28983037	      0.84669362	      0.75712103	     -2.54216435	      0.43085968	    -14.80898384	      0.61501062	      0.01073396	     29.07766322	     13.32673938	      0.00000000	      3.70972576	      1.53171765	     17.31963905	      7.60927884	      0.13280697	     29.41752506	    -10.84851201	      0.00000000	      0.02023416	      0.04295008	     -1.27608400	      0.03757686	      0.05712360	     -1.35583925	      0.03324270	      0.10442881	     -1.35583925	      0.02312562	      0.10442881	     -1.11657350	      0.01878944	      0.08758379	     -1.03681825	      0.01156180	      0.06652967	     -0.95706300	      0.14453058	      0.48585984	     -7.09719641	      0.00000000	      0.00000000	     24.41985402	     -6.29123765	     -5.62208485	     14.48282237	     -3.77123936	     47.83759395	     37.09690351	     84.42357803	      6.79187944	     10.00457158	     16.52190393	     -0.17172289	     54.16233940	     35.51294589	     63.22136938	     -5.44182287	      8.00205957
      0.03389831	     -2.27424120	     -3.93877179	     96.62383111	      0.29188149	      0.84656805	      0.75380108	     -2.86400347	      0.08519245	    -14.72389163	      0.51883525	      0.00905538	     29.30934085	     15.57818760	      0.00000000	      2.10805705	      1.67105347	     20.30722770	      5.59883006	      0.09771802	     27.18760299	    -16.78008506	      0.00000000	      0.04230851	      0.01140078	     -0.99474236	      0.07857113	      0.01516304	     -1.05691376	      0.06950865	      0.02771985	     -1.05691376	      0.04835440	      0.02771985	     -0.87039957	      0.03928768	      0.02324847	     -0.80822817	      0.02417508	      0.01765981	     -0.74605677	      0.30220545	      0.12896790	     -5.53245859	      0.00000000	      0.00000000	     23.91336494	     -6.16321082	     -5.34113738	     14.22785356	     -3.65903284	     48.62124447	     36.64156536	     87.51878289	      6.62051669	      8.70132458	     15.58654362	     -0.01849987	     51.90360220	     35.57941034	     72.19788333	     -3.46067077	      9.98243193
      0.05084746	     -2.30682846	     -3.58937575	     95.53436369	      0.29321748	      0.84680891	      0.75235274	     -3.15476981	      0.02002494	    -13.88866596	      0.63678257	      0.01111395	     29.36385695	     15.84339050	      0.00000000	      1.29264675	      1.54556673	     19.64513028	      5.03361778	      0.08785320	     26.93913477	    -16.99194655	      0.00000000	      0.01155710	      0.01127859	     -0.77418322	      0.02146269	      0.01500052	     -0.82256967	      0.01898716	      0.02742275	     -0.82256967	      0.01320861	      0.02742275	     -0.67741032	      0.01073192	      0.02299929	     -0.62902387	      0.00660373	      0.01747053	     -0.58063742	      0.08255119	      0.12758561	     -4.30577483	      0.00000000	      0.00000000	     23.59417372	     -6.07422939	     -5.45827299	     14.20117852	     -3.81927914	     49.47165376	     36.34273343	     87.73906564	      5.98795525	      8.21851741	     16.20191142	     -0.13688130	     55.38164996	     34.96984095	     78.10108510	     -3.08737260	      8.95421843
      0.06779661	     -2.24891752	     -3.42846806	     94.93071779	      0.29386043	      0.84692258	      0.75156214	     -3.22895877	      0.03701964	    -13.42642897	      0.79571083	      0.01388777	     29.35926668	     15.87958521	      0.00000000	      0.89880452	      1.41897433	     19.18526639	      4.75171700	      0.08293311	     26.82558372	    -17.13399209	      0.00000000	      0.00574105	      0.02528762	     -0.64490885	      0.01066170	      0.03363253	     -0.68521566	      0.00943197	      0.06148431	     -0.68521566	      0.00656144	      0.06148431	     -0.56429525	      0.00533114	      0.05156651	     -0.52398844	      0.00328044	      0.03917052	     -0.48368164	      0.04100774	      0.28605858	     -3.58678957	      0.00000000	      0.00000000	     23.32658745	     -5.88922805	     -5.23788163	     14.18277602	     -4.00977149	     50.00188336	     36.12979089	     87.83904588	      5.68817159	      8.32518067	     16.93732338	     -0.15065140	     59.28864142	     34.36100961	     85.35686382	     -3.08829376	      7.76009804
